<mxfile host="app.diagrams.net" agent="Mozilla/5.0 (X11; Ubuntu; Linux x86_64; rv:132.0) Gecko/20100101 Firefox/132.0" version="24.9.0">
  <diagram id="C5RBs43oDa-KdzZeNtuy" name="Page-1">
    <mxGraphModel dx="1105" dy="145" grid="1" gridSize="10" guides="1" tooltips="1" connect="1" arrows="1" fold="1" page="1" pageScale="1" pageWidth="413" pageHeight="583" math="0" shadow="0">
      <root>
        <mxCell id="WIyWlLk6GJQsqaUBKTNV-0" />
        <mxCell id="WIyWlLk6GJQsqaUBKTNV-1" parent="WIyWlLk6GJQsqaUBKTNV-0" />
        <mxCell id="nupeqDl4COyCQ8jmjJZ0-0" value="&lt;div&gt;books&lt;/div&gt;" style="rounded=1;whiteSpace=wrap;html=1;fontSize=12;glass=0;strokeWidth=1;shadow=0;fillColor=none;" vertex="1" parent="WIyWlLk6GJQsqaUBKTNV-1">
          <mxGeometry x="120" y="809" width="120" height="40" as="geometry" />
        </mxCell>
        <mxCell id="nupeqDl4COyCQ8jmjJZ0-1" value="&lt;div&gt;recommandations&lt;/div&gt;" style="rhombus;whiteSpace=wrap;html=1;shadow=0;fontFamily=Helvetica;fontSize=12;align=center;strokeWidth=1;spacing=6;spacingTop=-4;fillColor=none;" vertex="1" parent="WIyWlLk6GJQsqaUBKTNV-1">
          <mxGeometry x="360" y="789" width="120" height="80" as="geometry" />
        </mxCell>
        <mxCell id="nupeqDl4COyCQ8jmjJZ0-2" value="users" style="rounded=1;whiteSpace=wrap;html=1;fontSize=12;glass=0;strokeWidth=1;shadow=0;fillColor=none;" vertex="1" parent="WIyWlLk6GJQsqaUBKTNV-1">
          <mxGeometry x="600" y="809" width="120" height="40" as="geometry" />
        </mxCell>
        <mxCell id="nupeqDl4COyCQ8jmjJZ0-3" value="" style="endArrow=none;html=1;rounded=0;exitX=1;exitY=0.5;exitDx=0;exitDy=0;entryX=0;entryY=0.5;entryDx=0;entryDy=0;" edge="1" parent="WIyWlLk6GJQsqaUBKTNV-1" source="nupeqDl4COyCQ8jmjJZ0-1" target="nupeqDl4COyCQ8jmjJZ0-2">
          <mxGeometry width="50" height="50" relative="1" as="geometry">
            <mxPoint x="380" y="779" as="sourcePoint" />
            <mxPoint x="430" y="729" as="targetPoint" />
          </mxGeometry>
        </mxCell>
        <mxCell id="nupeqDl4COyCQ8jmjJZ0-4" value="" style="endArrow=none;html=1;rounded=0;exitX=1;exitY=0.5;exitDx=0;exitDy=0;" edge="1" parent="WIyWlLk6GJQsqaUBKTNV-1" source="nupeqDl4COyCQ8jmjJZ0-0" target="nupeqDl4COyCQ8jmjJZ0-1">
          <mxGeometry width="50" height="50" relative="1" as="geometry">
            <mxPoint x="380" y="779" as="sourcePoint" />
            <mxPoint x="430" y="729" as="targetPoint" />
          </mxGeometry>
        </mxCell>
        <mxCell id="nupeqDl4COyCQ8jmjJZ0-7" value="" style="endArrow=none;html=1;rounded=0;" edge="1" parent="WIyWlLk6GJQsqaUBKTNV-1" target="nupeqDl4COyCQ8jmjJZ0-8">
          <mxGeometry width="50" height="50" relative="1" as="geometry">
            <mxPoint x="140" y="809" as="sourcePoint" />
            <mxPoint x="190" y="759" as="targetPoint" />
          </mxGeometry>
        </mxCell>
        <mxCell id="nupeqDl4COyCQ8jmjJZ0-8" value="" style="shape=waypoint;sketch=0;fillStyle=solid;size=6;pointerEvents=1;points=[];fillColor=none;resizable=0;rotatable=0;perimeter=centerPerimeter;snapToPoint=1;strokeColor=#FF0A0A;" vertex="1" parent="WIyWlLk6GJQsqaUBKTNV-1">
          <mxGeometry x="130" y="759" width="20" height="20" as="geometry" />
        </mxCell>
        <mxCell id="nupeqDl4COyCQ8jmjJZ0-10" value="&lt;font color=&quot;#ff0a0a&quot;&gt;ISBN&lt;/font&gt;" style="text;html=1;align=center;verticalAlign=middle;whiteSpace=wrap;rounded=0;" vertex="1" parent="WIyWlLk6GJQsqaUBKTNV-1">
          <mxGeometry x="110" y="739" width="60" height="30" as="geometry" />
        </mxCell>
        <mxCell id="nupeqDl4COyCQ8jmjJZ0-11" value="" style="endArrow=none;html=1;rounded=0;" edge="1" parent="WIyWlLk6GJQsqaUBKTNV-1">
          <mxGeometry width="50" height="50" relative="1" as="geometry">
            <mxPoint x="180" y="809" as="sourcePoint" />
            <mxPoint x="180" y="789" as="targetPoint" />
          </mxGeometry>
        </mxCell>
        <mxCell id="nupeqDl4COyCQ8jmjJZ0-12" value="" style="shape=waypoint;sketch=0;fillStyle=solid;size=6;pointerEvents=1;points=[];fillColor=none;resizable=0;rotatable=0;perimeter=centerPerimeter;snapToPoint=1;strokeColor=#000000;" vertex="1" parent="WIyWlLk6GJQsqaUBKTNV-1">
          <mxGeometry x="170" y="779" width="20" height="20" as="geometry" />
        </mxCell>
        <mxCell id="nupeqDl4COyCQ8jmjJZ0-33" style="edgeStyle=orthogonalEdgeStyle;rounded=0;orthogonalLoop=1;jettySize=auto;html=1;exitX=0.5;exitY=1;exitDx=0;exitDy=0;" edge="1" parent="WIyWlLk6GJQsqaUBKTNV-1">
          <mxGeometry relative="1" as="geometry">
            <mxPoint x="180" y="777" as="sourcePoint" />
            <mxPoint x="180" y="777" as="targetPoint" />
          </mxGeometry>
        </mxCell>
        <mxCell id="nupeqDl4COyCQ8jmjJZ0-13" value="title" style="text;html=1;align=center;verticalAlign=middle;whiteSpace=wrap;rounded=0;" vertex="1" parent="WIyWlLk6GJQsqaUBKTNV-1">
          <mxGeometry x="150" y="759" width="60" height="30" as="geometry" />
        </mxCell>
        <mxCell id="nupeqDl4COyCQ8jmjJZ0-14" value="" style="endArrow=none;html=1;rounded=0;" edge="1" parent="WIyWlLk6GJQsqaUBKTNV-1" target="nupeqDl4COyCQ8jmjJZ0-15">
          <mxGeometry width="50" height="50" relative="1" as="geometry">
            <mxPoint x="220" y="809" as="sourcePoint" />
            <mxPoint x="270" y="759" as="targetPoint" />
          </mxGeometry>
        </mxCell>
        <mxCell id="nupeqDl4COyCQ8jmjJZ0-15" value="" style="shape=waypoint;sketch=0;fillStyle=solid;size=6;pointerEvents=1;points=[];fillColor=none;resizable=0;rotatable=0;perimeter=centerPerimeter;snapToPoint=1;strokeColor=#000000;" vertex="1" parent="WIyWlLk6GJQsqaUBKTNV-1">
          <mxGeometry x="210" y="759" width="20" height="20" as="geometry" />
        </mxCell>
        <mxCell id="nupeqDl4COyCQ8jmjJZ0-16" value="author" style="text;html=1;align=center;verticalAlign=middle;whiteSpace=wrap;rounded=0;" vertex="1" parent="WIyWlLk6GJQsqaUBKTNV-1">
          <mxGeometry x="190" y="739" width="60" height="30" as="geometry" />
        </mxCell>
        <mxCell id="nupeqDl4COyCQ8jmjJZ0-23" value="" style="endArrow=none;html=1;rounded=0;" edge="1" parent="WIyWlLk6GJQsqaUBKTNV-1">
          <mxGeometry width="50" height="50" relative="1" as="geometry">
            <mxPoint x="139.81999999999994" y="889" as="sourcePoint" />
            <mxPoint x="139.81999999999994" y="849" as="targetPoint" />
          </mxGeometry>
        </mxCell>
        <mxCell id="nupeqDl4COyCQ8jmjJZ0-24" value="" style="endArrow=none;html=1;rounded=0;" edge="1" parent="WIyWlLk6GJQsqaUBKTNV-1">
          <mxGeometry width="50" height="50" relative="1" as="geometry">
            <mxPoint x="180" y="869" as="sourcePoint" />
            <mxPoint x="179.81999999999994" y="849" as="targetPoint" />
          </mxGeometry>
        </mxCell>
        <mxCell id="nupeqDl4COyCQ8jmjJZ0-25" value="" style="endArrow=none;html=1;rounded=0;" edge="1" parent="WIyWlLk6GJQsqaUBKTNV-1">
          <mxGeometry width="50" height="50" relative="1" as="geometry">
            <mxPoint x="219.81999999999994" y="889" as="sourcePoint" />
            <mxPoint x="219.81999999999994" y="849" as="targetPoint" />
          </mxGeometry>
        </mxCell>
        <mxCell id="nupeqDl4COyCQ8jmjJZ0-26" value="" style="shape=waypoint;sketch=0;fillStyle=solid;size=6;pointerEvents=1;points=[];fillColor=none;resizable=0;rotatable=0;perimeter=centerPerimeter;snapToPoint=1;" vertex="1" parent="WIyWlLk6GJQsqaUBKTNV-1">
          <mxGeometry x="130" y="879" width="20" height="20" as="geometry" />
        </mxCell>
        <mxCell id="nupeqDl4COyCQ8jmjJZ0-27" value="" style="shape=waypoint;sketch=0;fillStyle=solid;size=6;pointerEvents=1;points=[];fillColor=none;resizable=0;rotatable=0;perimeter=centerPerimeter;snapToPoint=1;" vertex="1" parent="WIyWlLk6GJQsqaUBKTNV-1">
          <mxGeometry x="170" y="859" width="20" height="20" as="geometry" />
        </mxCell>
        <mxCell id="nupeqDl4COyCQ8jmjJZ0-28" value="" style="shape=waypoint;sketch=0;fillStyle=solid;size=6;pointerEvents=1;points=[];fillColor=none;resizable=0;rotatable=0;perimeter=centerPerimeter;snapToPoint=1;" vertex="1" parent="WIyWlLk6GJQsqaUBKTNV-1">
          <mxGeometry x="210" y="879" width="20" height="20" as="geometry" />
        </mxCell>
        <mxCell id="nupeqDl4COyCQ8jmjJZ0-29" value="year" style="text;html=1;align=center;verticalAlign=middle;whiteSpace=wrap;rounded=0;" vertex="1" parent="WIyWlLk6GJQsqaUBKTNV-1">
          <mxGeometry x="110" y="889" width="60" height="30" as="geometry" />
        </mxCell>
        <mxCell id="nupeqDl4COyCQ8jmjJZ0-30" value="publisher" style="text;html=1;align=center;verticalAlign=middle;whiteSpace=wrap;rounded=0;" vertex="1" parent="WIyWlLk6GJQsqaUBKTNV-1">
          <mxGeometry x="150" y="869" width="60" height="30" as="geometry" />
        </mxCell>
        <mxCell id="nupeqDl4COyCQ8jmjJZ0-31" value="author" style="text;html=1;align=center;verticalAlign=middle;whiteSpace=wrap;rounded=0;" vertex="1" parent="WIyWlLk6GJQsqaUBKTNV-1">
          <mxGeometry x="190" y="889" width="60" height="30" as="geometry" />
        </mxCell>
        <mxCell id="nupeqDl4COyCQ8jmjJZ0-35" value="" style="endArrow=none;html=1;rounded=0;entryX=0;entryY=0.5;entryDx=0;entryDy=0;" edge="1" parent="WIyWlLk6GJQsqaUBKTNV-1" target="nupeqDl4COyCQ8jmjJZ0-0">
          <mxGeometry width="50" height="50" relative="1" as="geometry">
            <mxPoint x="100" y="829" as="sourcePoint" />
            <mxPoint x="190" y="799" as="targetPoint" />
          </mxGeometry>
        </mxCell>
        <mxCell id="nupeqDl4COyCQ8jmjJZ0-36" value="global_rating" style="text;html=1;align=center;verticalAlign=middle;whiteSpace=wrap;rounded=0;" vertex="1" parent="WIyWlLk6GJQsqaUBKTNV-1">
          <mxGeometry x="30" y="814" width="70" height="30" as="geometry" />
        </mxCell>
        <mxCell id="nupeqDl4COyCQ8jmjJZ0-37" value="" style="endArrow=none;html=1;rounded=0;" edge="1" parent="WIyWlLk6GJQsqaUBKTNV-1" target="nupeqDl4COyCQ8jmjJZ0-38">
          <mxGeometry width="50" height="50" relative="1" as="geometry">
            <mxPoint x="420" y="869" as="sourcePoint" />
            <mxPoint x="470" y="819" as="targetPoint" />
          </mxGeometry>
        </mxCell>
        <mxCell id="nupeqDl4COyCQ8jmjJZ0-38" value="" style="shape=waypoint;sketch=0;fillStyle=solid;size=6;pointerEvents=1;points=[];fillColor=none;resizable=0;rotatable=0;perimeter=centerPerimeter;snapToPoint=1;strokeColor=#000000;" vertex="1" parent="WIyWlLk6GJQsqaUBKTNV-1">
          <mxGeometry x="410" y="879" width="20" height="20" as="geometry" />
        </mxCell>
        <mxCell id="nupeqDl4COyCQ8jmjJZ0-39" value="rating" style="text;html=1;align=center;verticalAlign=middle;whiteSpace=wrap;rounded=0;" vertex="1" parent="WIyWlLk6GJQsqaUBKTNV-1">
          <mxGeometry x="390" y="889" width="60" height="30" as="geometry" />
        </mxCell>
        <mxCell id="nupeqDl4COyCQ8jmjJZ0-40" value="" style="endArrow=none;html=1;rounded=0;" edge="1" parent="WIyWlLk6GJQsqaUBKTNV-1" target="nupeqDl4COyCQ8jmjJZ0-41">
          <mxGeometry width="50" height="50" relative="1" as="geometry">
            <mxPoint x="620" y="809" as="sourcePoint" />
            <mxPoint x="670" y="759" as="targetPoint" />
          </mxGeometry>
        </mxCell>
        <mxCell id="nupeqDl4COyCQ8jmjJZ0-41" value="" style="shape=waypoint;sketch=0;fillStyle=solid;size=6;pointerEvents=1;points=[];fillColor=none;resizable=0;rotatable=0;perimeter=centerPerimeter;snapToPoint=1;strokeColor=#FF0A0A;" vertex="1" parent="WIyWlLk6GJQsqaUBKTNV-1">
          <mxGeometry x="610" y="759" width="20" height="20" as="geometry" />
        </mxCell>
        <mxCell id="nupeqDl4COyCQ8jmjJZ0-42" value="&lt;font color=&quot;#ff0a0a&quot;&gt;Id&lt;/font&gt;" style="text;html=1;align=center;verticalAlign=middle;whiteSpace=wrap;rounded=0;" vertex="1" parent="WIyWlLk6GJQsqaUBKTNV-1">
          <mxGeometry x="590" y="739" width="60" height="30" as="geometry" />
        </mxCell>
        <mxCell id="nupeqDl4COyCQ8jmjJZ0-43" value="" style="endArrow=none;html=1;rounded=0;" edge="1" parent="WIyWlLk6GJQsqaUBKTNV-1">
          <mxGeometry width="50" height="50" relative="1" as="geometry">
            <mxPoint x="660" y="809" as="sourcePoint" />
            <mxPoint x="660" y="789" as="targetPoint" />
          </mxGeometry>
        </mxCell>
        <mxCell id="nupeqDl4COyCQ8jmjJZ0-44" value="" style="shape=waypoint;sketch=0;fillStyle=solid;size=6;pointerEvents=1;points=[];fillColor=none;resizable=0;rotatable=0;perimeter=centerPerimeter;snapToPoint=1;strokeColor=#000000;" vertex="1" parent="WIyWlLk6GJQsqaUBKTNV-1">
          <mxGeometry x="650" y="779" width="20" height="20" as="geometry" />
        </mxCell>
        <mxCell id="nupeqDl4COyCQ8jmjJZ0-45" style="edgeStyle=orthogonalEdgeStyle;rounded=0;orthogonalLoop=1;jettySize=auto;html=1;exitX=0.5;exitY=1;exitDx=0;exitDy=0;" edge="1" parent="WIyWlLk6GJQsqaUBKTNV-1">
          <mxGeometry relative="1" as="geometry">
            <mxPoint x="660" y="777" as="sourcePoint" />
            <mxPoint x="660" y="777" as="targetPoint" />
          </mxGeometry>
        </mxCell>
        <mxCell id="nupeqDl4COyCQ8jmjJZ0-46" value="location" style="text;html=1;align=center;verticalAlign=middle;whiteSpace=wrap;rounded=0;" vertex="1" parent="WIyWlLk6GJQsqaUBKTNV-1">
          <mxGeometry x="630" y="759" width="60" height="30" as="geometry" />
        </mxCell>
        <mxCell id="nupeqDl4COyCQ8jmjJZ0-47" value="" style="endArrow=none;html=1;rounded=0;" edge="1" parent="WIyWlLk6GJQsqaUBKTNV-1" target="nupeqDl4COyCQ8jmjJZ0-48">
          <mxGeometry width="50" height="50" relative="1" as="geometry">
            <mxPoint x="700" y="809" as="sourcePoint" />
            <mxPoint x="750" y="759" as="targetPoint" />
          </mxGeometry>
        </mxCell>
        <mxCell id="nupeqDl4COyCQ8jmjJZ0-48" value="" style="shape=waypoint;sketch=0;fillStyle=solid;size=6;pointerEvents=1;points=[];fillColor=none;resizable=0;rotatable=0;perimeter=centerPerimeter;snapToPoint=1;strokeColor=#000000;" vertex="1" parent="WIyWlLk6GJQsqaUBKTNV-1">
          <mxGeometry x="690" y="759" width="20" height="20" as="geometry" />
        </mxCell>
        <mxCell id="nupeqDl4COyCQ8jmjJZ0-49" value="age" style="text;html=1;align=center;verticalAlign=middle;whiteSpace=wrap;rounded=0;" vertex="1" parent="WIyWlLk6GJQsqaUBKTNV-1">
          <mxGeometry x="670" y="739" width="60" height="30" as="geometry" />
        </mxCell>
        <mxCell id="nupeqDl4COyCQ8jmjJZ0-50" value="" style="line;strokeWidth=1;html=1;" vertex="1" parent="WIyWlLk6GJQsqaUBKTNV-1">
          <mxGeometry x="520" y="1048" width="160" height="10" as="geometry" />
        </mxCell>
        <mxCell id="nupeqDl4COyCQ8jmjJZ0-51" value="" style="shape=filledEdge;curved=0;rounded=0;fixDash=1;endArrow=none;strokeWidth=7;fillColor=#000000;edgeStyle=orthogonalEdgeStyle;html=1;" edge="1" parent="WIyWlLk6GJQsqaUBKTNV-1">
          <mxGeometry width="60" height="40" relative="1" as="geometry">
            <mxPoint x="520" y="1082.81" as="sourcePoint" />
            <mxPoint x="680" y="1082.81" as="targetPoint" />
          </mxGeometry>
        </mxCell>
        <mxCell id="nupeqDl4COyCQ8jmjJZ0-53" value="" style="edgeStyle=segmentEdgeStyle;endArrow=classic;html=1;curved=0;rounded=0;endSize=8;startSize=8;" edge="1" parent="WIyWlLk6GJQsqaUBKTNV-1">
          <mxGeometry width="50" height="50" relative="1" as="geometry">
            <mxPoint x="520" y="1112.81" as="sourcePoint" />
            <mxPoint x="680" y="1112.81" as="targetPoint" />
          </mxGeometry>
        </mxCell>
        <mxCell id="nupeqDl4COyCQ8jmjJZ0-54" value="" style="shape=singleArrow;whiteSpace=wrap;html=1;fillColor=#000000;" vertex="1" parent="WIyWlLk6GJQsqaUBKTNV-1">
          <mxGeometry x="520" y="1133" width="160" height="20" as="geometry" />
        </mxCell>
        <mxCell id="nupeqDl4COyCQ8jmjJZ0-55" value="0..N" style="text;html=1;align=center;verticalAlign=middle;whiteSpace=wrap;rounded=0;" vertex="1" parent="WIyWlLk6GJQsqaUBKTNV-1">
          <mxGeometry x="430" y="1038" width="60" height="30" as="geometry" />
        </mxCell>
        <mxCell id="nupeqDl4COyCQ8jmjJZ0-56" value="1..N" style="text;html=1;align=center;verticalAlign=middle;whiteSpace=wrap;rounded=0;" vertex="1" parent="WIyWlLk6GJQsqaUBKTNV-1">
          <mxGeometry x="430" y="1068" width="60" height="30" as="geometry" />
        </mxCell>
        <mxCell id="nupeqDl4COyCQ8jmjJZ0-57" value="0..1" style="text;html=1;align=center;verticalAlign=middle;whiteSpace=wrap;rounded=0;" vertex="1" parent="WIyWlLk6GJQsqaUBKTNV-1">
          <mxGeometry x="430" y="1098" width="60" height="30" as="geometry" />
        </mxCell>
        <mxCell id="nupeqDl4COyCQ8jmjJZ0-58" value="1" style="text;html=1;align=center;verticalAlign=middle;whiteSpace=wrap;rounded=0;" vertex="1" parent="WIyWlLk6GJQsqaUBKTNV-1">
          <mxGeometry x="430" y="1128" width="60" height="30" as="geometry" />
        </mxCell>
        <mxCell id="nupeqDl4COyCQ8jmjJZ0-59" value="many - optional" style="text;html=1;align=left;verticalAlign=middle;whiteSpace=wrap;rounded=0;" vertex="1" parent="WIyWlLk6GJQsqaUBKTNV-1">
          <mxGeometry x="700" y="1038" width="90" height="30" as="geometry" />
        </mxCell>
        <mxCell id="nupeqDl4COyCQ8jmjJZ0-60" value="many - mandatory" style="text;html=1;align=left;verticalAlign=middle;whiteSpace=wrap;rounded=0;" vertex="1" parent="WIyWlLk6GJQsqaUBKTNV-1">
          <mxGeometry x="700" y="1068" width="100" height="30" as="geometry" />
        </mxCell>
        <mxCell id="nupeqDl4COyCQ8jmjJZ0-61" value="one - optional" style="text;html=1;align=left;verticalAlign=middle;whiteSpace=wrap;rounded=0;" vertex="1" parent="WIyWlLk6GJQsqaUBKTNV-1">
          <mxGeometry x="700" y="1098" width="100" height="30" as="geometry" />
        </mxCell>
        <mxCell id="nupeqDl4COyCQ8jmjJZ0-62" value="one - mandatory" style="text;html=1;align=left;verticalAlign=middle;whiteSpace=wrap;rounded=0;" vertex="1" parent="WIyWlLk6GJQsqaUBKTNV-1">
          <mxGeometry x="700" y="1128" width="100" height="30" as="geometry" />
        </mxCell>
        <mxCell id="nupeqDl4COyCQ8jmjJZ0-63" value="LEGEND" style="text;html=1;align=center;verticalAlign=middle;whiteSpace=wrap;rounded=0;" vertex="1" parent="WIyWlLk6GJQsqaUBKTNV-1">
          <mxGeometry x="565" y="998" width="60" height="30" as="geometry" />
        </mxCell>
      </root>
    </mxGraphModel>
  </diagram>
</mxfile>
